<svg width="512" height="512" viewBox="0 0 512 512" fill="none" xmlns="http://www.w3.org/2000/svg">
<rect x="76.1589" y="33.615" width="366.107" height="282.554" fill="white"/>
<path d="M484.938 197.101H442.172V225.797H484.938V197.101Z" fill="#108A00"/>
<path d="M66.7906 197.101H27.0646V225.797H66.7906V197.101Z" fill="#108A00"/>
<path d="M445.493 395.131H66.5061C58.1121 395.131 51.3085 388.708 51.3085 380.783V63.4207C51.3085 35.6189 75.2654 13 104.712 13H407.286C436.733 13 460.691 35.6189 460.691 63.4207V380.783C460.691 388.708 453.887 395.131 445.493 395.131ZM81.7028 366.435H430.295V63.4207C430.295 51.4412 419.973 41.6965 407.286 41.6965H104.712C92.0254 41.6965 81.7028 51.4421 81.7028 63.4207V366.435Z" fill="#108A00"/>
<path d="M445.344 484.934H66.657C41.5502 484.934 21.1978 465.719 21.1978 442.016V222.238C21.1978 212.81 32.2909 207.153 40.6428 212.323L245.237 338.942C251.773 342.987 260.228 342.987 266.765 338.942L471.359 212.323C479.712 207.153 490.804 212.811 490.804 222.238V442.016C490.803 465.719 470.45 484.934 445.344 484.934Z" fill="#60CB52"/>
<path d="M445.344 499.282H66.6569C33.2104 499.282 6 473.594 6 442.016V222.238C6 207.777 18.4664 196.013 33.7898 196.013C39.1679 196.013 44.4192 197.504 48.9734 200.322L253.568 326.943C254.482 327.51 255.396 327.629 255.999 327.629C256.603 327.629 257.517 327.51 258.431 326.943L463.027 200.322C467.582 197.504 472.832 196.013 478.21 196.013C493.534 196.013 506 207.777 506 222.238V442.016C506 473.594 478.791 499.282 445.344 499.282ZM36.3954 226.848V442.016C36.3954 457.769 49.9714 470.586 66.6569 470.586H445.344C462.03 470.586 475.606 457.769 475.606 442.016V226.848L275.096 350.941C269.406 354.462 262.805 356.323 256.001 356.323C249.197 356.323 242.595 354.463 236.905 350.941L36.3954 226.848Z" fill="#108A00"/>
<g filter="url(#filter0_d_23_20)">
<path d="M331.987 128.241H180.011C171.617 128.241 164.813 121.817 164.813 113.892C164.813 105.968 171.617 99.5442 180.011 99.5442H331.987C340.381 99.5442 347.184 105.968 347.184 113.892C347.184 121.817 340.381 128.241 331.987 128.241Z" fill="#14A800"/>
</g>
<g filter="url(#filter1_d_23_20)">
<path d="M356.306 203.251H155.695C147.301 203.251 140.497 196.828 140.497 188.903C140.497 180.978 147.301 174.554 155.695 174.554H356.306C364.7 174.554 371.504 180.978 371.504 188.903C371.504 196.828 364.7 203.251 356.306 203.251Z" fill="#14A800"/>
</g>
<g filter="url(#filter2_d_23_20)">
<path d="M251.915 269.275C253.463 264.778 259.823 264.778 261.37 269.275L274.949 308.727C275.644 310.745 277.543 312.1 279.677 312.1H322.978C327.891 312.1 329.858 318.444 325.807 321.223L291.28 344.904C289.426 346.176 288.648 348.529 289.38 350.655L302.683 389.306C304.252 393.862 299.101 397.782 295.128 395.057L259.471 370.6C257.766 369.432 255.519 369.432 253.815 370.6L218.158 395.057C214.184 397.782 209.034 393.862 210.602 389.306L223.905 350.655C224.637 348.529 223.859 346.176 222.005 344.904L187.479 321.223C183.427 318.444 185.394 312.1 190.307 312.1H233.608C235.742 312.1 237.641 310.745 238.336 308.727L251.915 269.275Z" fill="white"/>
<path d="M277.313 307.913L263.734 268.461C261.413 261.716 251.873 261.716 249.551 268.461L235.972 307.913C235.625 308.922 234.675 309.6 233.608 309.6H190.307C182.937 309.6 179.987 319.116 186.065 323.285L220.591 346.966C221.518 347.602 221.907 348.778 221.541 349.841L208.238 388.492C205.886 395.327 213.611 401.207 219.572 397.118L255.229 372.662C256.081 372.078 257.205 372.078 258.057 372.662L293.714 397.118C299.674 401.207 307.4 395.327 305.047 388.492L291.744 349.841C291.378 348.778 291.767 347.602 292.694 346.966L327.221 323.285C333.298 319.116 330.348 309.6 322.978 309.6H279.677C278.61 309.6 277.66 308.922 277.313 307.913Z" stroke="#166534" stroke-width="5" stroke-linecap="round" stroke-linejoin="bevel"/>
</g>
<defs>
<filter id="filter0_d_23_20" x="164.813" y="99.5442" width="182.371" height="33.6965" filterUnits="userSpaceOnUse" color-interpolation-filters="sRGB">
<feFlood flood-opacity="0" result="BackgroundImageFix"/>
<feColorMatrix in="SourceAlpha" type="matrix" values="0 0 0 0 0 0 0 0 0 0 0 0 0 0 0 0 0 0 127 0" result="hardAlpha"/>
<feOffset dy="5"/>
<feComposite in2="hardAlpha" operator="out"/>
<feColorMatrix type="matrix" values="0 0 0 0 0 0 0 0 0 0 0 0 0 0 0 0 0 0 0.25 0"/>
<feBlend mode="normal" in2="BackgroundImageFix" result="effect1_dropShadow_23_20"/>
<feBlend mode="normal" in="SourceGraphic" in2="effect1_dropShadow_23_20" result="shape"/>
</filter>
<filter id="filter1_d_23_20" x="140.497" y="174.554" width="231.006" height="33.6965" filterUnits="userSpaceOnUse" color-interpolation-filters="sRGB">
<feFlood flood-opacity="0" result="BackgroundImageFix"/>
<feColorMatrix in="SourceAlpha" type="matrix" values="0 0 0 0 0 0 0 0 0 0 0 0 0 0 0 0 0 0 127 0" result="hardAlpha"/>
<feOffset dy="5"/>
<feComposite in2="hardAlpha" operator="out"/>
<feColorMatrix type="matrix" values="0 0 0 0 0 0 0 0 0 0 0 0 0 0 0 0 0 0 0.25 0"/>
<feBlend mode="normal" in2="BackgroundImageFix" result="effect1_dropShadow_23_20"/>
<feBlend mode="normal" in="SourceGraphic" in2="effect1_dropShadow_23_20" result="shape"/>
</filter>
<filter id="filter2_d_23_20" x="180.288" y="260.902" width="152.709" height="145.076" filterUnits="userSpaceOnUse" color-interpolation-filters="sRGB">
<feFlood flood-opacity="0" result="BackgroundImageFix"/>
<feColorMatrix in="SourceAlpha" type="matrix" values="0 0 0 0 0 0 0 0 0 0 0 0 0 0 0 0 0 0 127 0" result="hardAlpha"/>
<feOffset dy="5"/>
<feComposite in2="hardAlpha" operator="out"/>
<feColorMatrix type="matrix" values="0 0 0 0 0 0 0 0 0 0 0 0 0 0 0 0 0 0 0.25 0"/>
<feBlend mode="normal" in2="BackgroundImageFix" result="effect1_dropShadow_23_20"/>
<feBlend mode="normal" in="SourceGraphic" in2="effect1_dropShadow_23_20" result="shape"/>
</filter>
</defs>
</svg>
